<?xml version="1.0" encoding="UTF-8"?>
<svg id="Layer_1" xmlns="http://www.w3.org/2000/svg" version="1.1" viewBox="0 0 618.35 571.01">
  <!-- Generator: Adobe Illustrator 29.3.1, SVG Export Plug-In . SVG Version: 2.1.0 Build 151)  -->
  <defs>
    <style>
      .st0 {
        font-family: Gotham-Bold, Gotham;
        font-weight: 700;
      }

      .st1, .st2 {
        fill: #00833e;
      }

      .st3 {
        font-family: Gotham-Black, Gotham;
        font-weight: 800;
      }

      .st2 {
        font-size: 26.28px;
      }
    </style>
  </defs>
  <text class="st2" transform="translate(32.25 506.54) scale(1.03 1)"><tspan class="st3" x="0" y="0">FLEXTECH</tspan><tspan class="st0" x="144.03" y="0" xml:space="preserve"> COMPAÑIA FLEXTECH S.A.</tspan></text>
  <g>
    <polygon class="st1" points="161.24 149.85 258.1 123.38 258.92 157.54 215.72 170.52 215.32 182.75 255.73 171.67 257.9 203.9 217.5 215 217.79 227.24 263.79 215.58 265.29 249.11 167.77 276.21 161.24 149.85"/>
    <polygon class="st1" points="21.93 188.69 156.43 152.38 97.15 255.35 153.63 241.24 155.95 279.28 15.19 318.09 75.07 211.25 24.22 226.08 21.93 188.69"/>
    <polygon class="st1" points="346.95 99.7 456.35 69.52 458.71 110.14 430.14 118.15 433.58 203.23 382 216.75 377.9 132.3 349.31 139.67 346.95 99.7"/>
    <path class="st1" d="M487.96,63.46l57.82-16.01,57.38,111.53-54.36,14.78-5.93-13.6-40.42,11.07-3.82,16.07-54.37,14.12,43.7-137.95ZM518.93,97.36l-8.18,39.84,21.63-4.88-13.46-34.96Z"/>
    <path class="st1" d="M363.63,62.33s-49.88,14.15-39.73,50.14c10.09,35.82,41.74,63.15,44.04,94.43,1.86,25.55-7.77,85.31-101.19,105.88l-3.19-47.8c29.58-13.81,40.36-31.23,40.36-31.23,16.68-21.96-7.99-62.92-18.8-81.7-11.3-19.64-24.57-56.88.44-89.58,25.01-32.69,74.27-42.04,74.27-42.04l3.8,41.89Z"/>
    <path class="st1" d="M571.96,58.21v-.06c0-5.73,4.65-10.59,10.56-10.59s10.5,4.8,10.5,10.53v.06c0,5.73-4.66,10.59-10.56,10.59s-10.5-4.8-10.5-10.53ZM591.8,58.15v-.06c0-5.15-3.99-9.37-9.28-9.37s-9.34,4.28-9.34,9.42v.06c0,5.15,3.98,9.34,9.28,9.34s9.34-4.25,9.34-9.4ZM577.86,52.25h5.24c1.75,0,2.97.47,3.75,1.25.64.64.96,1.48.96,2.56v.06c0,1.69-.9,2.82-2.3,3.4l2.68,3.93h-3.58l-2.27-3.4h-1.37v3.4h-3.11v-11.2ZM583.01,57.63c1.08,0,1.69-.52,1.69-1.34v-.06c0-.87-.67-1.34-1.69-1.34h-2.04v2.73h2.04Z"/>
  </g>
</svg>